<svg width="394" height="62" viewBox="0 0 394 62" fill="none" xmlns="http://www.w3.org/2000/svg">
<g clip-path="url(#clip0_34_2690)">
<path d="M46.952 62H47.0568C58.6376 62 68.9782 60.5508 74.0262 59.7128C75.7205 59.4334 76.7511 57.6874 76.1921 56.0811C75.7031 54.7018 74.2358 53.9335 72.8384 54.3351C51.0393 60.6731 20.524 60.2191 7.28384 52.4145C17.6419 59.9397 33.1703 61.9825 46.952 62ZM86.4629 0C85.4673 0 84.4716 0.0174599 83.4935 0.0349197C81.2052 0.0872994 78.8996 0.174599 76.6114 0.349197C74.3232 0.506336 72.0175 0.733315 69.7118 1.13489C69.6943 1.13489 69.6769 1.15235 69.6419 1.15235C68.9083 1.30949 68.4367 2.02535 68.5939 2.75866C68.7511 3.49197 69.4673 3.96339 70.2009 3.80625H70.2183C72.3668 3.3523 74.6026 3.02056 76.8384 2.77612C79.0742 2.51422 81.3275 2.32216 83.5808 2.18248C88.0873 1.90313 92.6114 1.79837 97.1528 1.92059C101.677 2.0428 106.201 2.35708 110.69 3.02056C112.926 3.3523 115.162 3.77133 117.345 4.31259C119.546 4.85384 121.712 5.53478 123.79 6.42523C123.878 6.46015 123.983 6.42523 124.017 6.33793C124.052 6.25063 124.017 6.14587 123.93 6.11095C121.869 5.09828 119.703 4.33005 117.502 3.66657C115.301 3.0031 113.083 2.49676 110.83 2.06026C106.341 1.20473 101.782 0.680935 97.2227 0.366657C93.7293 0.139679 90.2358 0.0174599 86.7424 0L86.4629 0ZM133.799 23.6756C133.048 25.1422 132.07 26.539 130.934 27.831C129.817 29.1056 128.541 30.2929 127.197 31.4103C124.507 33.6277 121.537 35.5483 118.515 37.3816C118.428 37.4165 118.41 37.5213 118.445 37.5911C118.48 37.6784 118.585 37.7133 118.673 37.6784C121.852 36.1245 125.013 34.5007 128 32.4754C129.485 31.4801 130.935 30.3627 132.262 29.1056C133.59 27.8485 134.812 26.4342 135.825 24.8279C135.843 24.793 135.86 24.7581 135.878 24.7406C135.965 24.5835 136 24.3914 136 24.2343V24.2168C136 23.7978 135.773 23.3962 135.371 23.1867C135.197 23.0994 135.022 23.0645 134.847 23.0645C134.41 23.047 134.009 23.274 133.799 23.6756ZM14.8122 21.7375C13.5371 22.174 12.2795 22.6105 11.0393 23.1692C9.81659 23.7105 8.59389 24.3041 7.40611 24.9327C6.21834 25.5787 5.04804 26.2596 3.8952 26.993C2.74236 27.7437 1.64192 28.4945 0.50655 29.35C0.471616 29.385 0.419214 29.4373 0.366812 29.4723C0.122271 29.7167 0 30.0484 0 30.3627C0 30.6945 0.139738 31.0262 0.38428 31.2881C0.89083 31.777 1.71179 31.777 2.20087 31.2532L2.21834 31.2357C3.07424 30.3453 4.06987 29.4373 5.04804 28.5993C6.04367 27.7437 7.07424 26.9231 8.13974 26.1549C9.18777 25.3692 10.2882 24.6359 11.4236 23.9375C12.559 23.2391 13.7118 22.6105 14.8996 22.0169C14.9869 21.982 15.0218 21.8947 14.9869 21.8074C14.9694 21.7375 14.8996 21.7026 14.8297 21.7026C14.8472 21.7375 14.8297 21.7375 14.8122 21.7375Z" fill="#C9EF3C" style="fill:#C9EF3C;fill:color(display-p3 0.7882 0.9373 0.2353);fill-opacity:1;"/>
<path d="M103.369 15.6458V15.4572C103.369 13.5925 104.882 12.0805 106.748 12.0805C108.613 12.0805 110.126 13.5925 110.126 15.4572V15.6458C110.126 17.5105 108.613 19.0225 106.748 19.0225C104.882 19.0225 103.369 17.5105 103.369 15.6458ZM35.9126 31.6303H32.2759V47.4961H24.9536V12.0805H32.2759V25.8685H35.4881L44.4156 12.0805H52.5886L42.1484 28.2291L53.392 47.4943H45.0305L35.9126 31.6286V31.6303ZM67.2313 48.2032C59.3903 48.2032 53.8619 42.6318 53.8619 35.3126C53.8619 27.9934 59.3885 22.5634 67.2313 22.5634C75.0741 22.5634 80.6008 28.1348 80.6008 35.3126C80.6008 42.4903 75.0741 48.2032 67.2313 48.2032ZM67.2313 42.2075C71.2942 42.2075 74.2235 39.2323 74.2235 35.3126C74.2235 31.3928 71.2942 28.5609 67.2313 28.5609C63.1685 28.5609 60.2392 31.536 60.2392 35.3126C60.2392 39.0892 63.1685 42.2075 67.2313 42.2075ZM91.6541 32.5277V47.4961H84.8995V23.2251H91.6541V27.1449C93.4025 24.4525 96.1414 22.5651 99.5423 22.5651V30.0257C96.1886 30.0257 93.0706 31.3475 91.6541 32.5277ZM103.369 47.4961V23.2251H110.124V47.4961H103.369ZM28.6934 6.46888H26.6672L26.3161 8.11011H24.9571L26.496 1.70059H28.8733L30.4121 8.11011H29.0444L28.6934 6.46888ZM26.889 5.43351H28.4715L27.9248 2.87738H27.4375L26.8907 5.43351H26.889ZM33.9772 8.23757C32.0016 8.23757 30.5833 6.79363 30.5833 4.90448C30.5833 3.01532 31.9859 1.58012 33.9353 1.58012C35.4654 1.58012 36.765 2.48628 37.1842 3.94767H35.7728C35.4986 3.27198 34.8156 2.77612 33.9597 2.77612C32.7632 2.77612 31.9248 3.67355 31.9248 4.91321C31.9248 6.15286 32.772 7.05902 34.0034 7.05902C34.9868 7.05902 35.7309 6.48634 36.0034 5.657H34.199V4.69147H37.268C37.2768 4.72638 37.2855 4.92194 37.2855 4.97431C37.2855 6.81982 35.8235 8.23931 33.9772 8.23931V8.23757ZM42.2287 8.10836H38.1169V1.69884H42.1361V2.79358H39.4427V4.23751H42.0156V5.2205H39.4427V7.01537H42.2305V8.11011L42.2287 8.10836ZM43.0672 8.10836V1.69884H44.8977L47.0357 6.15111H47.3781V1.69884H48.6182V8.10836H46.7545L44.6514 3.6561H44.3091V8.10836H43.0689H43.0672ZM52.8401 8.23757C50.882 8.23757 49.4619 6.79363 49.4619 4.89575C49.4619 2.99786 50.882 1.58012 52.8401 1.58012C54.482 1.58012 55.799 2.62247 56.1065 4.17815H54.7562C54.4663 3.37499 53.7903 2.81977 52.8418 2.81977C51.6453 2.81977 50.8069 3.70847 50.8069 4.91321C50.8069 6.11794 51.6453 6.99093 52.8418 6.99093C53.8078 6.99093 54.5099 6.40952 54.7737 5.57144H56.1082C55.8008 7.16902 54.5099 8.23757 52.8418 8.23757H52.8401ZM61.0479 8.10836H56.9344V1.69884H60.9536V2.79358H58.2602V4.23751H60.8331V5.2205H58.2602V7.01537H61.0479V8.11011V8.10836Z" fill="white" style="fill:white;fill-opacity:1;"/>
</g>
<path d="M159.804 27L159.384 24.718H156.668L156.248 27H153.196L155.618 16.5H160.448L162.856 27H159.804ZM157.69 19.132L157.074 22.506H158.978L158.362 19.132H157.69ZM174.416 22.534C174.066 25.32 171.812 27.196 168.942 27.196C165.666 27.196 163.328 24.844 163.328 21.722C163.328 18.614 165.666 16.304 168.942 16.304C171.77 16.304 174.066 18.138 174.416 20.882H171.42C171.056 19.832 170.174 19.09 168.942 19.09C167.402 19.09 166.352 20.224 166.352 21.75C166.352 23.276 167.402 24.41 168.942 24.41C170.202 24.41 171.112 23.626 171.434 22.534H174.416ZM186.703 22.534C186.353 25.32 184.099 27.196 181.229 27.196C177.953 27.196 175.615 24.844 175.615 21.722C175.615 18.614 177.953 16.304 181.229 16.304C184.057 16.304 186.353 18.138 186.703 20.882H183.707C183.343 19.832 182.461 19.09 181.229 19.09C179.689 19.09 178.639 20.224 178.639 21.75C178.639 23.276 179.689 24.41 181.229 24.41C182.489 24.41 183.399 23.626 183.721 22.534H186.703ZM189.498 15.45V14.792L193.824 14.204V14.862L189.498 15.45ZM195.042 24.606V27H188.182V16.5H194.944V18.894H191.164V20.532H194.776V22.604H191.164V24.606H195.042ZM201.696 24.606V27H196.614V16.5H199.596V24.606H201.696ZM204.53 15.45V14.792L208.856 14.204V14.862L204.53 15.45ZM210.074 24.606V27H203.214V16.5H209.976V18.894H206.196V20.532H209.808V22.604H206.196V24.606H210.074ZM217.371 27L216.069 23.612H214.627V27H211.645V16.5H216.671C219.121 16.5 220.493 17.984 220.493 20.14C220.493 21.456 219.933 22.506 218.897 23.094L220.493 27H217.371ZM216.027 18.866H214.627V21.582H216.013C217.035 21.582 217.413 20.938 217.413 20.21C217.413 19.496 217.035 18.866 216.027 18.866ZM227.754 27L227.334 24.718H224.618L224.198 27H221.146L223.568 16.5H228.398L230.806 27H227.754ZM225.64 19.132L225.024 22.506H226.928L226.312 19.132H225.64ZM235.299 27H232.317V18.894H230.455V16.5H237.147V18.894H235.299V27ZM245.455 24.606V27H238.595V16.5H245.357V18.894H241.577V20.532H245.189V22.604H241.577V24.606H245.455ZM255.665 22.842C255.665 25.53 253.971 27.196 251.297 27.196C248.651 27.196 246.929 25.53 246.929 22.842V16.5H249.911V22.996C249.911 23.906 250.429 24.55 251.297 24.55C252.179 24.55 252.683 23.906 252.683 22.996V16.5H255.665V22.842ZM263.098 27L261.796 23.612H260.354V27H257.372V16.5H262.398C264.848 16.5 266.22 17.984 266.22 20.14C266.22 21.456 265.66 22.506 264.624 23.094L266.22 27H263.098ZM261.754 18.866H260.354V21.582H261.74C262.762 21.582 263.14 20.938 263.14 20.21C263.14 19.496 262.762 18.866 261.754 18.866ZM274.707 27H270.941V16.5H274.693C278.249 16.5 280.335 18.656 280.335 21.708C280.335 24.83 278.235 27 274.707 27ZM274.623 19.132H273.825V24.312H274.637C276.499 24.312 277.325 23.22 277.325 21.736C277.325 20.224 276.485 19.132 274.623 19.132ZM288.707 24.606V27H281.847V16.5H288.609V18.894H284.829V20.532H288.441V22.604H284.829V24.606H288.707ZM304.392 22.534C304.042 25.32 301.788 27.196 298.918 27.196C295.642 27.196 293.304 24.844 293.304 21.722C293.304 18.614 295.642 16.304 298.918 16.304C301.746 16.304 304.042 18.138 304.392 20.882H301.396C301.032 19.832 300.15 19.09 298.918 19.09C297.378 19.09 296.328 20.224 296.328 21.75C296.328 23.276 297.378 24.41 298.918 24.41C300.178 24.41 301.088 23.626 301.41 22.534H304.392ZM311.597 27L310.295 23.612H308.853V27H305.871V16.5H310.897C313.347 16.5 314.719 17.984 314.719 20.14C314.719 21.456 314.159 22.506 313.123 23.094L314.719 27H311.597ZM310.253 18.866H308.853V21.582H310.239C311.261 21.582 311.639 20.938 311.639 20.21C311.639 19.496 311.261 18.866 310.253 18.866ZM327.111 21.722C327.111 24.844 324.773 27.196 321.469 27.196C318.193 27.196 315.855 24.844 315.855 21.722C315.855 18.614 318.193 16.304 321.469 16.304C324.773 16.304 327.111 18.614 327.111 21.722ZM318.879 21.75C318.879 23.276 319.929 24.41 321.469 24.41C323.023 24.41 324.087 23.276 324.087 21.75C324.087 20.224 323.023 19.09 321.469 19.09C319.929 19.09 318.879 20.224 318.879 21.75ZM331.637 27H328.655V16.5H331.637V27ZM337.887 27H333.225V24.592H337.229C338.111 24.592 338.447 24.102 338.447 23.612C338.447 23.122 338.167 22.646 337.229 22.646H336.417C334.429 22.646 333.099 21.4 333.099 19.58C333.099 17.76 334.429 16.5 336.445 16.5H341.065V18.908H337.159C336.571 18.908 336.263 19.216 336.263 19.65C336.263 20.042 336.571 20.35 337.159 20.35H337.901C340.253 20.35 341.541 21.806 341.541 23.654C341.541 25.53 340.239 27 337.887 27ZM347.275 27H342.613V24.592H346.617C347.499 24.592 347.835 24.102 347.835 23.612C347.835 23.122 347.555 22.646 346.617 22.646H345.805C343.817 22.646 342.487 21.4 342.487 19.58C342.487 17.76 343.817 16.5 345.833 16.5H350.453V18.908H346.547C345.959 18.908 345.651 19.216 345.651 19.65C345.651 20.042 345.959 20.35 346.547 20.35H347.289C349.641 20.35 350.929 21.806 350.929 23.654C350.929 25.53 349.627 27 347.275 27ZM358.276 27L357.856 24.718H355.14L354.72 27H351.668L354.09 16.5H358.92L361.328 27H358.276ZM356.162 19.132L355.546 22.506H357.45L356.834 19.132H356.162ZM365.385 27H362.641V16.5H366.085L368.913 22.45H369.431V16.5H372.175V27H368.633L365.903 21.05H365.385V27ZM384.779 22.534C384.429 25.32 382.175 27.196 379.305 27.196C376.029 27.196 373.691 24.844 373.691 21.722C373.691 18.614 376.029 16.304 379.305 16.304C382.133 16.304 384.429 18.138 384.779 20.882H381.783C381.419 19.832 380.537 19.09 379.305 19.09C377.765 19.09 376.715 20.224 376.715 21.75C376.715 23.276 377.765 24.41 379.305 24.41C380.565 24.41 381.475 23.626 381.797 22.534H384.779ZM393.118 24.606V27H386.258V16.5H393.02V18.894H389.24V20.532H392.852V22.604H389.24V24.606H393.118ZM157.116 44H154.12V33.5H157.102C160.658 33.5 162.73 35.642 162.73 38.75C162.73 41.872 160.644 44 157.116 44ZM157.088 34.48H155.17V43.02H157.102C160.378 43.02 161.666 41.088 161.666 38.75C161.666 36.44 160.378 34.48 157.088 34.48ZM171.482 43.02V44H164.944V33.5H171.258V34.48H165.994V37.84H171.034V38.82H165.994V43.02H171.482ZM177.137 39.94H174.631V44H173.581V33.5H177.123C179.433 33.5 180.763 34.858 180.763 36.706C180.763 38.582 179.433 39.94 177.137 39.94ZM177.193 34.48H174.631V38.96H177.137C178.971 38.96 179.671 37.91 179.671 36.706C179.671 35.558 178.985 34.48 177.193 34.48ZM190.049 40.108C190.049 42.656 188.565 44.21 186.213 44.21C183.875 44.21 182.377 42.656 182.377 40.108V33.5H183.427V40.206C183.427 41.998 184.435 43.202 186.213 43.202C188.005 43.202 188.999 41.998 188.999 40.206V33.5H190.049V40.108ZM193.685 44H192.635V33.5H193.685V44ZM199.844 44H195.784V42.964H199.914C201.79 42.964 202.574 41.886 202.574 40.724C202.574 39.618 202 38.596 199.914 38.596H198.654C197.044 38.596 195.854 37.574 195.854 36.09C195.854 34.55 197.044 33.5 198.738 33.5H202.994V34.536H198.682C197.506 34.536 196.946 35.236 196.946 36.09C196.946 36.888 197.506 37.56 198.682 37.56H199.914C202.56 37.56 203.666 39.03 203.666 40.71C203.666 42.446 202.532 44 199.844 44ZM216.768 40.738C216.768 42.474 215.634 44 212.946 44H209.054V33.5H212.708C214.892 33.5 215.802 34.62 215.802 35.95C215.802 36.846 215.41 37.574 214.584 37.98C216.124 38.386 216.768 39.464 216.768 40.738ZM212.708 34.48H210.104V37.742H212.708C214.164 37.742 214.738 36.902 214.738 36.062C214.738 35.264 214.318 34.48 212.708 34.48ZM213.016 38.652H210.104V43.02H213.016C214.892 43.02 215.676 41.942 215.676 40.78C215.676 39.674 215.102 38.652 213.016 38.652ZM219.92 44H218.87V33.5H219.92V44ZM229.256 43.02V44H222.718V33.5H229.032V34.48H223.768V37.84H228.808V38.82H223.768V43.02H229.256ZM232.405 44H231.355V33.5H233.693L238.145 43.02H238.775V33.5H239.825V44H237.487L233.035 34.48H232.405V44ZM245.392 44H244.342V34.48H241.64V33.5H248.108V34.48H245.392V44ZM255.694 31.484V32.128L253.846 31.582L251.942 32.128V31.484L253.818 30.91H253.86L255.694 31.484ZM259.278 38.764C259.278 41.83 256.968 44.21 253.818 44.21C250.682 44.21 248.358 41.83 248.358 38.764C248.358 35.684 250.682 33.304 253.818 33.304C256.968 33.304 259.278 35.684 259.278 38.764ZM249.45 38.764C249.45 41.312 251.27 43.202 253.818 43.202C256.366 43.202 258.186 41.312 258.186 38.764C258.186 36.202 256.366 34.312 253.818 34.312C251.27 34.312 249.45 36.202 249.45 38.764ZM263.281 44H262.231V34.48H259.529V33.5H265.997V34.48H263.281V44ZM276.944 42.964V44H271.708V42.964H273.822V34.536H271.708V33.5H274.914V42.964H276.944ZM281.869 44H279.223V42.964H281.939C283.815 42.964 284.599 41.886 284.599 40.724C284.599 39.618 284.025 38.596 281.939 38.596H279.223V33.5H284.823V34.536H280.315V37.56H281.939C284.585 37.56 285.691 39.03 285.691 40.71C285.691 42.446 284.557 44 281.869 44ZM297.984 44L297.172 40.752H293.084L292.272 44H291.152L293.812 33.5H296.458L299.104 44H297.984ZM294.652 34.48L293.336 39.772H296.934L295.618 34.48H294.652ZM302.193 44H301.143V33.5H303.481L307.933 43.02H308.563V33.5H309.613V44H307.275L302.823 34.48H302.193V44ZM315.628 44H311.568V42.964H315.698C317.574 42.964 318.358 41.886 318.358 40.724C318.358 39.618 317.784 38.596 315.698 38.596H314.438C312.828 38.596 311.638 37.574 311.638 36.09C311.638 34.55 312.828 33.5 314.522 33.5H318.778V34.536H314.466C313.29 34.536 312.73 35.236 312.73 36.09C312.73 36.888 313.29 37.56 314.466 37.56H315.698C318.344 37.56 319.45 39.03 319.45 40.71C319.45 42.446 318.316 44 315.628 44Z" fill="white" style="fill:white;fill-opacity:1;"/>
<defs>
<clipPath id="clip0_34_2690">
<rect width="136" height="62" fill="white" style="fill:white;fill-opacity:1;"/>
</clipPath>
</defs>
</svg>
