<svg width="13" height="15" viewBox="0 0 13 15" fill="none" xmlns="http://www.w3.org/2000/svg">
<path d="M4.15625 1.40625V2.5H8.09375V1.40625C8.09375 1.05078 8.36719 0.75 8.75 0.75C9.10547 0.75 9.40625 1.05078 9.40625 1.40625V2.5H10.5C11.457 2.5 12.25 3.29297 12.25 4.25V4.6875V6V13C12.25 13.9844 11.457 14.75 10.5 14.75H1.75C0.765625 14.75 0 13.9844 0 13V6V4.6875V4.25C0 3.29297 0.765625 2.5 1.75 2.5H2.84375V1.40625C2.84375 1.05078 3.11719 0.75 3.5 0.75C3.85547 0.75 4.15625 1.05078 4.15625 1.40625ZM1.3125 6V7.53125H3.5V6H1.3125ZM1.3125 8.84375V10.5938H3.5V8.84375H1.3125ZM4.8125 8.84375V10.5938H7.4375V8.84375H4.8125ZM8.75 8.84375V10.5938H10.9375V8.84375H8.75ZM10.9375 7.53125V6H8.75V7.53125H10.9375ZM10.9375 11.9062H8.75V13.4375H10.5C10.7188 13.4375 10.9375 13.2461 10.9375 13V11.9062ZM7.4375 11.9062H4.8125V13.4375H7.4375V11.9062ZM3.5 11.9062H1.3125V13C1.3125 13.2461 1.50391 13.4375 1.75 13.4375H3.5V11.9062ZM7.4375 7.53125V6H4.8125V7.53125H7.4375Z" fill="#23125D" style="fill:#23125D;fill:color(display-p3 0.1373 0.0706 0.3647);fill-opacity:1;"/>
</svg>
